<svg width="200" height="200" viewBox="0 0 200 200" fill="none" xmlns="http://www.w3.org/2000/svg">
  <!-- Wave background -->
  <defs>
    <linearGradient id="waveGradient" x1="0%" y1="0%" x2="100%" y2="100%">
      <stop offset="0%" style="stop-color:#667eea;stop-opacity:1" />
      <stop offset="100%" style="stop-color:#764ba2;stop-opacity:1" />
    </linearGradient>
    <linearGradient id="surfboardGradient" x1="0%" y1="0%" x2="100%" y2="0%">
      <stop offset="0%" style="stop-color:#ffffff;stop-opacity:1" />
      <stop offset="100%" style="stop-color:#e0e7ff;stop-opacity:1" />
    </linearGradient>
  </defs>
  
  <!-- Main circle background -->
  <circle cx="100" cy="100" r="95" fill="url(#waveGradient)"/>
  
  <!-- Wave pattern -->
  <path d="M 20 120 Q 50 100, 80 120 T 140 120 T 180 120" stroke="#ffffff" stroke-width="3" fill="none" opacity="0.3"/>
  <path d="M 20 140 Q 50 120, 80 140 T 140 140 T 180 140" stroke="#ffffff" stroke-width="3" fill="none" opacity="0.2"/>
  <path d="M 20 160 Q 50 140, 80 160 T 140 160 T 180 160" stroke="#ffffff" stroke-width="3" fill="none" opacity="0.1"/>
  
  <!-- Surfboard -->
  <ellipse cx="100" cy="90" rx="50" ry="12" fill="url(#surfboardGradient)" transform="rotate(-25 100 90)"/>
  <ellipse cx="100" cy="90" rx="48" ry="10" fill="#ffffff" transform="rotate(-25 100 90)" opacity="0.8"/>
  
  <!-- Surfer figure -->
  <circle cx="95" cy="65" r="8" fill="#ffffff"/>
  <path d="M 95 73 L 95 88" stroke="#ffffff" stroke-width="3" stroke-linecap="round"/>
  <path d="M 85 80 L 95 78 L 105 80" stroke="#ffffff" stroke-width="3" stroke-linecap="round"/>
  <path d="M 95 88 L 88 100" stroke="#ffffff" stroke-width="3" stroke-linecap="round"/>
  <path d="M 95 88 L 102 100" stroke="#ffffff" stroke-width="3" stroke-linecap="round"/>
  
  <!-- K8s cube accent (subtle) -->
  <g opacity="0.6">
    <path d="M 150 40 L 165 50 L 165 65 L 150 75 L 135 65 L 135 50 Z" fill="none" stroke="#ffffff" stroke-width="2"/>
    <path d="M 150 40 L 150 55" stroke="#ffffff" stroke-width="2"/>
    <path d="M 135 50 L 150 55 L 165 50" stroke="#ffffff" stroke-width="2"/>
  </g>
</svg>
